<?xml version="1.0" encoding="UTF-8"?>
<!DOCTYPE svg PUBLIC "-//W3C//DTD SVG 1.1//EN" "http://www.w3.org/Graphics/SVG/1.1/DTD/svg11.dtd">
<!-- Creator: CorelDRAW 2020 (64 Bit) -->
<svg xmlns="http://www.w3.org/2000/svg" xml:space="preserve" width="8.26772in" height="11.6929in" version="1.1" style="shape-rendering:geometricPrecision; text-rendering:geometricPrecision; image-rendering:optimizeQuality; fill-rule:evenodd; clip-rule:evenodd"
viewBox="0 0 8267.72 11692.91"
 xmlns:xlink="http://www.w3.org/1999/xlink"
 xmlns:xodm="http://www.corel.com/coreldraw/odm/2003">
 <defs>
  <style type="text/css">
   <![CDATA[
    .fil2 {fill:none}
    .fil0 {fill:#373737;fill-rule:nonzero}
    .fil1 {fill:#FF651C;fill-rule:nonzero}
   ]]>
  </style>
   <clipPath id="id0">
    <path d="M1121.85 1116.89l316 0 0 -291.66 -316 0 0 291.66z"/>
   </clipPath>
 </defs>
 <g id="Camada_x0020_1">
  <metadata id="CorelCorpID_0Corel-Layer"/>
  <g>
  </g>
  <g style="clip-path:url(#id0)">
   <g>
    <path class="fil0" d="M1514.14 1053.6l138.75 0 -4.13 -48.38 -130.12 0 -4.5 48.38zm68.62 -115.5l37.13 85.12 -2.25 16.13 31.5 64.87 72 0 -138.38 -279 -138 279 71.63 0 32.63 -67.5 -3 -13.87 36.75 -84.75z"/>
    <polygon class="fil0" points="1941.02,841.72 1941.02,989.47 1759.89,828.6 1759.89,1104.22 1820.65,1104.22 1820.65,956.47 2002.15,1117.35 2002.15,841.72 "/>
    <polygon class="fil0" points="2250,841.72 2250,989.47 2068.87,828.6 2068.87,1104.22 2129.62,1104.22 2129.62,956.47 2311.13,1117.35 2311.13,841.72 "/>
    <polygon class="fil0" points="2377.85,841.72 2377.85,1104.22 2442.35,1104.22 2442.35,841.72 "/>
    <path class="fil0" d="M2551.22 1104.22l132.37 0 0 -52.12 -132.37 0 0 52.12zm0 -210.37l132.37 0 0 -52.13 -132.37 0 0 52.13zm0 97.87l124.87 0 0 -51 -124.87 0 0 51zm-42 -150l0 262.5 60.75 0 0 -262.5 -60.75 0z"/>
    <path class="fil1" d="M1269.14 1029.75c0,1.61 1.24,2.92 2.73,2.92l67.45 0c1.5,0 2.73,-1.31 2.73,-2.92l0 -17.5c0,-1.6 -1.24,-2.92 -2.73,-2.92l-67.45 0c-1.49,0 -2.73,1.31 -2.73,2.92l0 17.5zm-71.06 2.22l70 -58.7c1.39,-1.17 1.39,-3.32 0,-4.48l-70 -58.66c-0.42,-0.36 -0.94,-0.59 -1.49,-0.67 -0.55,-0.07 -1.11,0.01 -1.61,0.24 -0.5,0.24 -0.93,0.61 -1.22,1.08 -0.3,0.47 -0.45,1.01 -0.45,1.57l0 22.86c0,0.87 0.37,1.68 1.06,2.22l40.03 33.61 -40.03 33.61c-0.33,0.27 -0.59,0.61 -0.77,1 -0.19,0.39 -0.28,0.8 -0.29,1.23l0 22.86c0,2.48 2.88,3.83 4.78,2.22zm203.77 -206.76l-268.33 0c-6.45,0 -11.67,5.22 -11.67,11.67l0 268.33c0,6.45 5.21,11.67 11.67,11.67l268.33 0c6.45,0 11.67,-5.22 11.67,-11.67l0 -268.33c0,-6.45 -5.21,-11.67 -11.67,-11.67zm-14.59 265.42l-239.17 0 0 -239.17 239.17 0 0 239.17z"/>
   </g>
  </g>
  <polygon class="fil2" points="1121.85,1116.89 1437.85,1116.89 1437.85,825.22 1121.85,825.22 "/>
 </g>
</svg>
